<svg width="32" height="32" viewBox="0 0 32 32" fill="none" xmlns="http://www.w3.org/2000/svg">
<g clip-path="url(#clip0_203_136)">
<path d="M25.333 11.6133L18.2224 6.08264C17.5984 5.59719 16.8303 5.33362 16.0397 5.33362C15.2491 5.33362 14.4811 5.59719 13.857 6.08264L6.74505 11.6133C6.31764 11.9457 5.97184 12.3713 5.73405 12.8578C5.49627 13.3442 5.37279 13.8785 5.37305 14.42V24.02C5.37305 24.7272 5.654 25.4055 6.1541 25.9056C6.65419 26.4057 7.33247 26.6866 8.03971 26.6866H24.0397C24.747 26.6866 25.4252 26.4057 25.9253 25.9056C26.4254 25.4055 26.7064 24.7272 26.7064 24.02V14.42C26.7064 13.3226 26.1997 12.2866 25.333 11.6133Z" fill="#7065F0" stroke="#7065F0" stroke-width="3" stroke-linecap="round" stroke-linejoin="round"/>
<path d="M21.3337 20C18.387 21.7773 13.611 21.7773 10.667 20" stroke="#F9FAFB" stroke-width="3" stroke-linecap="round" stroke-linejoin="round"/>
</g>
<defs>
<clipPath id="clip0_203_136">
<rect width="32" height="32" fill="white"/>
</clipPath>
</defs>
</svg>
